<?xml version='1.0' encoding='iso-8859-1'?>
<!DOCTYPE svg PUBLIC '-//W3C//DTD SVG 1.1//EN' 'http://www.w3.org/Graphics/SVG/1.1/DTD/svg11.dtd'>
<!-- Uploaded to: SVG Repo, www.svgrepo.com, Generator: SVG Repo Mixer Tools -->
<svg fill="#000000" height="800px" width="800px" version="1.1" xmlns="http://www.w3.org/2000/svg" viewBox="0 0 485.227 485.227" xmlns:xlink="http://www.w3.org/1999/xlink" enable-background="new 0 0 485.227 485.227">
  <g>
    <path d="m394.909,149.189l-146.993-146.992c-1.406-1.407-3.314-2.197-5.303-2.197-1.989,0-3.897,0.79-5.303,2.197l-146.992,146.992c-2.929,2.929-2.929,7.678 1.42109e-14,10.606 2.929,2.929 7.678,2.929 10.606,0l22.445-22.445v152.885c0,4.142 3.358,7.5 7.5,7.5h74.246v43.065c-11.249,3.259-19.499,13.646-19.499,25.931v41.998c0,14.887 12.112,26.999 26.999,26.999s26.999-12.112 26.999-26.999v-41.998c0-12.285-8.25-22.672-19.499-25.931v-43.065h44.997v92.563c-11.249,3.259-19.499,13.646-19.499,25.931v41.998c0,14.887 12.111,26.999 26.999,26.999s26.999-12.112 26.999-26.999v-41.998c0-12.285-8.25-22.672-19.499-25.931v-92.563h74.246c4.143,0 7.5-3.358 7.5-7.5v-152.883l22.444,22.444c1.465,1.464 3.385,2.197 5.304,2.197s3.839-0.732 5.304-2.197c2.928-2.929 2.928-7.678-0.001-10.607zm-170.295,217.543v41.998c0,6.616-5.383,11.999-11.999,11.999s-11.999-5.383-11.999-11.999v-41.998c0-6.616 5.383-11.999 11.999-11.999s11.999,5.383 11.999,11.999zm59.997,49.497v41.998c0,6.616-5.383,11.999-11.999,11.999s-11.999-5.383-11.999-11.999v-41.998c0-6.616 5.383-11.999 11.999-11.999s11.999,5.383 11.999,11.999zm62.255-293.894l-.009,160.4h-208.488l-.018-160.369 104.262-104.26 104.253,104.229z"/>
    <path d="m174.366,204.09c0,37.631 30.615,68.247 68.247,68.247s68.248-30.616 68.248-68.247-30.616-68.247-68.248-68.247-68.247,30.615-68.247,68.247zm121.495,0c0,29.36-23.887,53.247-53.248,53.247-29.36,0-53.247-23.887-53.247-53.247s23.886-53.247 53.247-53.247c29.361,2.84217e-14 53.248,23.886 53.248,53.247z"/>
    <path d="m215.614,85.546v31.499c0,4.142 3.358,7.5 7.5,7.5h38.999c4.143,0 7.5-3.358 7.5-7.5v-31.499c0-14.887-12.111-26.999-26.999-26.999-14.888-1.42109e-14-27,12.112-27,26.999zm38.998,0v23.999h-23.999v-23.999c0-6.616 5.383-11.999 12-11.999 6.617-1.42109e-14 11.999,5.383 11.999,11.999z"/>
    <path d="m235.113,168.842v35.248c0,4.142 3.358,7.5 7.5,7.5h18.75c4.143,0 7.5-3.358 7.5-7.5s-3.357-7.5-7.5-7.5h-11.25v-27.748c0-4.142-3.357-7.5-7.5-7.5s-7.5,3.358-7.5,7.5z"/>
  </g>
</svg>