<svg xmlns="http://www.w3.org/2000/svg" width="800" height="800" fill="none" viewBox="0 0 24 24"><defs><linearGradient id="a" x1="12" x2="12" y1="2" y2="22" gradientTransform="translate(0 -.005)" gradientUnits="userSpaceOnUse" spreadMethod="reflect"><stop offset="0" style="stop-color:#888"/><stop offset="1" style="stop-color:silver"/></linearGradient></defs><path d="M12 22c-4.714 0-7.071 0-8.536-1.465C2 19.072 2 16.714 2 12s0-7.071 1.464-8.536C4.93 2 7.286 2 12 2s7.071 0 8.535 1.464C22 4.93 22 7.286 22 12s0 7.071-1.465 8.535C19.072 22 16.714 22 12 22Z" style="stroke-linejoin:round;stroke:url(#a);fill:#fff;fill-rule:nonzero;paint-order:stroke;transform-box:fill-box;transform-origin:42.7718% 33.526%;stroke-opacity:.94"/><text x="1.131" y="25.298" style="fill:#333;font-family:&quot;Adwaita Mono&quot;;font-size:36.7163px;letter-spacing:-1px;line-height:35.2476px;stroke-miterlimit:1;text-anchor:middle;text-transform:lowercase;word-spacing:-6.4px;white-space:pre;transform-box:fill-box;transform-origin:46.9332% 20.1137%;vector-effect:non-scaling-stroke" transform="matrix(.47075 0 -.0019 .42348 11.54 7.287)">09</text><text x="32.551" y="9.029" style="fill:#333;font-family:&quot;Adwaita Mono&quot;;font-size:39.164px;font-weight:700;letter-spacing:-4.5px;line-height:35.2476px;text-anchor:middle;text-transform:uppercase;white-space:pre" transform="matrix(.45972 0 0 .40854 10.698 7.796)"> </text></svg>